# xmcd CD database file
#
# Track frame offsets:
#	150
#	13428
#	33531
#	52221
#	65570
#	87038
#	102961
#	122040
#	145526
#	158661
#	178022
#	199687
#	219852
#
# Disc length: 3116 seconds
#
# Revision: 1
# Processed by: cddbd v1.4PL0 Copyright (c) Steve Scherf et al.
# Submitted via: CDex 1.40Release
#
DISCID=b40c2a0d
DTITLE=Egidio Juke Ingala Band Feat. Alex Schultz - Drivin' And Jivin'
DYEAR=2002
DGENRE=Blues
TTITLE0=Stand By Me
TTITLE1=Baby's Boogie
TTITLE2=You Are The Girl
TTITLE3=Train Blues
TTITLE4=I Feel Something New
TTITLE5=Flying High
TTITLE6=Like A Queen
TTITLE7=Full Circle
TTITLE8=Keep On Churnin'
TTITLE9=Sittin' Here Watin'
TTITLE10=A Good Girl Is Hard To Find
TTITLE11=Oh Baby
TTITLE12=I Left My Heart In San Francisco
EXTD=YEAR: 2002 ID3G: 0
EXTT0=
EXTT1=
EXTT2=
EXTT3=
EXTT4=
EXTT5=
EXTT6=
EXTT7=
EXTT8=
EXTT9=
EXTT10=
EXTT11=
EXTT12=
PLAYORDER=
